<?xml version="1.0" encoding="UTF-8"?>
<svg width="194px" height="21px" viewBox="0 0 194 21" version="1.1" xmlns="http://www.w3.org/2000/svg" xmlns:xlink="http://www.w3.org/1999/xlink">
    <title>BluBracket Logo</title>
    <defs>
        <path d="M13.27,0.462 L13.27,11.542 L10.191,14.682 L0.251,14.682 L0.246,14.688 L0.246,0.462 L13.27,0.462 Z M10.12,9.142 L3.395,9.142 L3.395,11.537 L3.391,11.542 L10.12,11.542 L10.12,9.142 Z M10.12,3.612 L3.395,3.612 L3.395,6.001 L10.12,6.001 L10.12,3.612 Z" id="path-1"></path>
        <polygon id="path-3" points="3.567 0.462 3.567 11.542 11.592 11.542 11.592 14.692 0.418 14.692 0.418 0.462"></polygon>
        <polygon id="path-5" points="3.976 0.462 3.976 11.537 10.356 11.537 10.356 0.462 13.505 0.462 13.505 14.689 0.827 14.689 0.827 0.462"></polygon>
        <path d="M13.43,0.469 L13.43,11.549 L10.351,14.689 L0.412,14.689 L0.406,14.695 L0.406,0.469 L13.43,0.469 Z M10.28,9.15 L3.555,9.15 L3.555,11.544 L3.551,11.549 L10.28,11.549 L10.28,9.15 Z M10.28,3.62 L3.555,3.62 L3.555,6.009 L10.28,6.009 L10.28,3.62 Z" id="path-7"></path>
        <path d="M11.223,0.459 L16.709,14.69 L13.255,14.69 L11.975,11.438 L5.412,11.438 L4.152,14.69 L0.698,14.69 L6.184,0.459 L11.223,0.459 Z M8.704,2.777 L6.611,8.286 L10.776,8.286 L8.704,2.777 Z" id="path-9"></path>
        <polygon id="path-11" points="4.123 0.459 4.123 6.334 10.015 0.459 14.383 0.459 9.344 5.399 15.094 14.689 11.132 14.689 6.927 7.696 4.123 10.502 4.123 14.689 0.974 14.689 0.974 0.459"></polygon>
        <path d="M0.273,0.459 L13.297,0.465 L13.297,9.146 L9.866,9.146 L13.297,14.69 L9.336,14.69 L6.002,9.146 L3.423,9.146 L3.423,14.69 L0.273,14.69 L0.273,0.459 Z M10.148,3.606 L3.423,3.606 L3.423,6.005 L10.148,6.005 L10.148,3.606 Z" id="path-13"></path>
        <polygon id="path-15" points="12.961 0.459 12.961 3.61 3.615 3.61 3.615 11.539 13.063 11.539 13.063 14.689 0.465 14.689 0.465 0.459"></polygon>
        <polygon id="path-17" points="12.756 0.459 12.756 3.61 7.982 3.61 7.982 14.689 4.833 14.689 4.833 3.61 0.079 3.61 0.079 0.459"></polygon>
        <polygon id="path-19" points="13.148 0.459 13.148 14.689 0.551 14.689 0.551 11.539 9.999 11.539 9.999 3.61 0.653 3.61 0.653 0.459"></polygon>
        <path d="M9.74,0 L10.040625,0.007875 L10.040625,0.007875 L10.339,0.03 L10.479,0.045 C10.6016667,0.0596666667 10.7047778,0.0738888889 10.8007778,0.0891481481 L10.941,0.113 L11.134,0.15 L11.3645,0.203375 L11.3645,0.203375 L11.592,0.265 L11.713,0.297 L11.983625,0.3875 L11.983625,0.3875 L12.249,0.49 L12.395,0.553 C12.559,0.625 12.673,0.678 12.785,0.735 C12.856,0.772 12.926,0.808 12.995,0.846 C13.1,0.905 13.202,0.967 13.304,1.03 C13.3853333,0.979333333 13.4533333,0.938 13.5177778,0.90037037 L13.613,0.846 L13.82,0.736 L13.991125,0.652375 L13.991125,0.652375 L14.163,0.574 L14.357,0.49 L14.6235,0.387625 L14.6235,0.387625 L14.893,0.298 L14.977,0.274 C15.1023333,0.238666667 15.2121111,0.21 15.3167037,0.185037037 L15.471,0.15 L15.641,0.117 C15.7503333,0.0976666667 15.8485556,0.0818888889 15.943963,0.0684814815 L16.086,0.05 L16.267,0.03 L16.566625,0.007875 L16.566625,0.007875 L16.867,0 L26.606,0 L26.606,21 L15.4530001,21.0002883 C15.3826681,20.9848454 15.312352,20.968324 15.24225,20.950625 L15.016,20.889 L14.897,20.858 L14.624625,20.766875 L14.624625,20.766875 L14.359,20.666 L14.224,20.606 C14.048,20.529 13.934,20.476 13.822,20.418 C13.751,20.383 13.68,20.345 13.61,20.306 C13.508,20.25 13.405,20.187 13.304,20.125 C13.183,20.199 13.09,20.255 12.995,20.307 C12.927,20.345 12.855,20.383 12.783,20.419 L12.615375,20.50125 L12.615375,20.50125 L12.444,20.579 L12.25,20.665 L11.9835,20.7665 L11.9835,20.7665 L11.714,20.856 L11.627,20.881 C11.503,20.9156667 11.3941111,20.9441111 11.2896667,20.9692963 L11.157,21 L0.06,21 L0.06,0 L9.74,0 Z M23.377,12.192 L18.302,12.192 C18.346,12.304 18.3846667,12.4182222 18.418,12.5343704 L18.464,12.71 L18.475,12.76 C18.517,12.953 18.544,13.148 18.556,13.345 C18.567,13.582 18.562,13.777 18.541,13.972 C18.517,14.179 18.48,14.37 18.429,14.557 C18.3903333,14.697 18.3476667,14.8214444 18.3004074,14.9395185 L18.226,15.113 L18.186,15.198 C18.132,15.308 18.0735556,15.4153333 18.0091852,15.5205926 L17.908,15.677 L17.853,15.752 C17.777,15.8566667 17.6961111,15.9595556 17.6085556,16.0588889 L17.472,16.205 L16.102,17.573 L16.162,17.594 C16.33075,17.6495 16.4696875,17.6864375 16.6020156,17.7178906 L16.733,17.748 L16.814,17.769 C16.994,17.80875 17.1385625,17.831625 17.2742656,17.8498594 L17.408,17.867 L17.498,17.881 C17.71175,17.905 17.894,17.9183125 18.0687969,17.9234688 L18.242,17.926 L23.377,17.926 L23.377,12.192 Z M8.305,12.192 L3.23,12.192 L3.23,17.926 L8.365,17.926 C8.51833333,17.926 8.67122222,17.9202222 8.82307407,17.9092593 L9.05,17.889 L9.204,17.867 L9.46475,17.83175 L9.46475,17.83175 L9.727,17.786 L9.875,17.748 L10.1335,17.687125 L10.1335,17.687125 L10.389,17.615 L10.505,17.573 L9.135,16.204 C9.04033333,16.1093333 8.95366667,16.0097778 8.87233333,15.9074074 L8.754,15.752 L8.7,15.678 C8.62933333,15.574 8.56444444,15.4686667 8.50533333,15.3611111 L8.421,15.198 L8.381,15.113 C8.304,14.942 8.237,14.767 8.186,14.589 C8.126,14.37 8.089,14.179 8.068,13.988 C8.044,13.777 8.04,13.583 8.049,13.387 C8.0595,13.20775 8.07675,13.05325 8.10285938,12.9057813 L8.132,12.76 L8.143,12.71 C8.184,12.534 8.238,12.361 8.305,12.192 Z M14.171,12.192 L12.436,12.192 L11.937,12.69 C11.819,12.807 11.728,12.946 11.666,13.099 C11.635,13.174 11.613,13.25 11.598,13.328 C11.582,13.407 11.575,13.485 11.575,13.564 C11.575,13.725 11.605,13.883 11.665,14.029 C11.7115,14.14375 11.774875,14.2500625 11.8534375,14.3458281 L11.937,14.438 L12.574,15.072 C12.9450769,15.4412308 13.5317278,15.4696331 13.9367565,15.1572071 L14.034,15.072 L14.671,14.437 C14.788,14.321 14.879,14.182 14.942,14.029 C15.002,13.883 15.032,13.725 15.032,13.564 C15.032,13.485 15.025,13.407 15.01,13.329 C14.9716,13.1346 14.88904,12.95492 14.767952,12.800712 L14.67,12.69 L14.171,12.192 Z M8.366,3.229 L3.23,3.229 L3.23,8.963 L8.306,8.963 C8.258,8.84166667 8.21622222,8.71766667 8.18096296,8.5912963 L8.133,8.4 L8.1325,8.395875 L8.132,8.394 L8.124,8.358 C8.086,8.176 8.062,7.993 8.052,7.809 C8.041,7.572 8.044,7.377 8.066,7.182 C8.089,6.974 8.127,6.783 8.179,6.595 C8.21766667,6.45633333 8.26033333,6.33233333 8.3072963,6.21440741 L8.381,6.041 L8.421,5.956 C8.47433333,5.846 8.53344444,5.73822222 8.59833333,5.63296296 L8.7,5.477 L8.754,5.402 C8.83066667,5.29733333 8.91133333,5.19444444 8.99866667,5.09540741 L9.135,4.95 L10.505,3.581 L10.45,3.561 C10.2775,3.5055 10.1381875,3.468 10.00675,3.43626563 L9.877,3.406 L9.793,3.385 C9.6145,3.346 9.4714375,3.32275 9.3368125,3.30428125 L9.204,3.287 L9.117,3.274 L9.051,3.265 C8.824,3.241 8.596,3.229 8.366,3.229 Z M23.377,3.229 L18.242,3.229 C18.0886667,3.229 17.9357778,3.23433333 17.7836296,3.245 L17.556,3.265 L17.402,3.287 L17.13975,3.322625 L17.13975,3.322625 L16.879,3.368 L16.731,3.406 L16.473,3.467625 L16.473,3.467625 L16.218,3.539 L16.102,3.581 L17.472,4.95 C17.5666667,5.04466667 17.6533333,5.14377778 17.7343704,5.24614815 L17.852,5.402 L17.908,5.477 C17.9786667,5.57966667 18.0426667,5.685 18.1011852,5.79211111 L18.185,5.954 L18.225,6.041 C18.304,6.212 18.371,6.387 18.421,6.566 C18.48,6.783 18.517,6.974 18.539,7.166 C18.562,7.377 18.566,7.572 18.558,7.767 C18.544,8.005 18.517,8.201 18.475,8.395 C18.4463333,8.525 18.4105556,8.65277778 18.3685556,8.77774074 L18.301,8.963 L23.377,8.963 L23.377,3.229 Z M12.6712271,5.99659627 L12.574,6.082 L11.943,6.71 C11.762,6.891 11.644,7.112 11.598,7.353 C11.582,7.431 11.575,7.511 11.575,7.59 C11.575,7.751 11.605,7.907 11.665,8.055 C11.71225,8.1705 11.77525,8.2764375 11.8535781,8.37196875 L11.937,8.464 L12.436,8.962 L14.171,8.962 L14.67,8.464 C14.788,8.345 14.879,8.208 14.941,8.055 C15.002,7.907 15.032,7.75 15.032,7.59 C15.032,7.511 15.025,7.431 15.01,7.354 C14.9724,7.1604 14.89,6.98024 14.768432,6.825808 L14.67,6.715 L14.034,6.082 C13.662,5.71276923 13.0761302,5.68351479 12.6712271,5.99659627 L12.6712271,5.99659627 Z" id="path-21"></path>
    </defs>
    <g id="BluBracket-Logo" stroke="none" stroke-width="1" fill="none" fill-rule="evenodd">
        <g id="Group-3" transform="translate(39.000000, 3.000000)">
            <mask id="mask-2" fill="white">
                <use xlink:href="#path-1"></use>
            </mask>
            <g id="Clip-2"></g>
            <polygon id="Fill-1" fill="#333333" mask="url(#mask-2)" points="0.18 14.76 13.38 14.76 13.38 0.36 0.18 0.36"></polygon>
        </g>
        <g id="Group-6" transform="translate(55.000000, 3.000000)">
            <mask id="mask-4" fill="white">
                <use xlink:href="#path-3"></use>
            </mask>
            <g id="Clip-5"></g>
            <polygon id="Fill-4" fill="#333333" mask="url(#mask-4)" points="0.38 14.76 11.66 14.76 11.66 0.36 0.38 0.36"></polygon>
        </g>
        <g id="Group-9" transform="translate(68.000000, 3.000000)">
            <mask id="mask-6" fill="white">
                <use xlink:href="#path-5"></use>
            </mask>
            <g id="Clip-8"></g>
            <polygon id="Fill-7" fill="#333333" mask="url(#mask-6)" points="0.82 14.76 13.54 14.76 13.54 0.36 0.82 0.36"></polygon>
        </g>
        <g id="Group-12" transform="translate(85.000000, 3.000000)">
            <mask id="mask-8" fill="white">
                <use xlink:href="#path-7"></use>
            </mask>
            <g id="Clip-11"></g>
            <polygon id="Fill-10" fill="#333333" mask="url(#mask-8)" points="0.38 14.76 13.46 14.76 13.46 0.36 0.38 0.36"></polygon>
        </g>
        <g id="Group-15" transform="translate(115.000000, 3.000000)">
            <mask id="mask-10" fill="white">
                <use xlink:href="#path-9"></use>
            </mask>
            <g id="Clip-14"></g>
            <polygon id="Fill-13" fill="#333333" mask="url(#mask-10)" points="0.62 14.76 16.82 14.76 16.82 0.36 0.62 0.36"></polygon>
        </g>
        <g id="Group-18" transform="translate(149.000000, 3.000000)">
            <mask id="mask-12" fill="white">
                <use xlink:href="#path-11"></use>
            </mask>
            <g id="Clip-17"></g>
            <polygon id="Fill-16" fill="#333333" mask="url(#mask-12)" points="0.94 14.76 15.1 14.76 15.1 0.36 0.94 0.36"></polygon>
        </g>
        <g id="Group-21" transform="translate(101.000000, 3.000000)">
            <mask id="mask-14" fill="white">
                <use xlink:href="#path-13"></use>
            </mask>
            <g id="Clip-20"></g>
            <polygon id="Fill-19" fill="#333333" mask="url(#mask-14)" points="0.22 14.76 13.3 14.76 13.3 0.36 0.22 0.36"></polygon>
        </g>
        <g id="Group-24" transform="translate(134.000000, 3.000000)">
            <mask id="mask-16" fill="white">
                <use xlink:href="#path-15"></use>
            </mask>
            <g id="Clip-23"></g>
            <polygon id="Fill-22" fill="#333333" mask="url(#mask-16)" points="0.46 14.76 13.18 14.76 13.18 0.36 0.46 0.36"></polygon>
        </g>
        <g id="Group-27" transform="translate(181.000000, 3.000000)">
            <mask id="mask-18" fill="white">
                <use xlink:href="#path-17"></use>
            </mask>
            <g id="Clip-26"></g>
            <polygon id="Fill-25" fill="#333333" mask="url(#mask-18)" points="0.02 14.76 12.86 14.76 12.86 0.36 0.02 0.36"></polygon>
        </g>
        <g id="Group-30" transform="translate(166.000000, 3.000000)">
            <mask id="mask-20" fill="white">
                <use xlink:href="#path-19"></use>
            </mask>
            <g id="Clip-29"></g>
            <polygon id="Fill-28" fill="#333333" mask="url(#mask-20)" points="0.5 14.76 13.22 14.76 13.22 0.36 0.5 0.36"></polygon>
        </g>
        <polygon id="Fill-31" fill="#333333" points="166.755 12.139 172.85 12.139 172.85 9.009 166.755 9.009"></polygon>
        <g id="Group-35">
            <mask id="mask-22" fill="white">
                <use xlink:href="#path-21"></use>
            </mask>
            <g id="Clip-34"></g>
            <polygon id="Fill-33" fill="#193DD6" mask="url(#mask-22)" points="0.06 21 26.7 21 26.7 0 0.06 0"></polygon>
        </g>
    </g>
</svg>