<?xml version="1.0" encoding="UTF-8"?>
<svg width="450px" height="360px" viewBox="0 0 450 360" version="1.1" xmlns="http://www.w3.org/2000/svg" xmlns:xlink="http://www.w3.org/1999/xlink">
    <title>BluBracket</title>
    <defs>
        <polygon id="path-1" points="-3.41060513e-13 0.835165517 450 0.835165517 450 358.835166 -3.41060513e-13 358.835166"></polygon>
    </defs>
    <g id="BluBracket" stroke="none" stroke-width="1" fill="none" fill-rule="evenodd">
        <g id="Group-14" transform="translate(0.000000, 0.164834)">
            <mask id="mask-2" fill="white">
                <use xlink:href="#path-1"></use>
            </mask>
            <g id="Clip-13"></g>
            <path d="M301.956326,267.414347 L302.886567,266.145083 C304.679396,263.521939 306.218522,260.8311 307.588514,258.03872 L308.265053,256.600222 C309.584304,253.706301 310.717507,250.744686 311.698489,247.190748 C312.561076,244.026051 313.186875,240.79366 313.592799,237.290493 C313.947982,233.990408 314.032549,230.690323 313.846501,226.67945 C313.643539,223.345518 313.186875,220.045433 312.476509,216.779195 L312.290461,215.933019 C311.580095,212.937557 310.666767,210.00979 309.550477,207.166639 L395.386379,207.166639 L395.386379,304.206065 L308.535669,304.206065 C304.645569,304.206065 300.772382,303.986059 295.952041,303.444507 L294.429828,303.207577 C291.436142,302.83526 288.442457,302.446019 284.383222,301.549073 L283.01323,301.193679 C280.070285,300.533662 277.161167,299.839798 273.355634,298.587458 L272.340825,298.232064 L295.51229,275.080698 C297.914004,272.660636 300.028189,270.071338 301.956326,267.414347 L301.956326,267.414347 Z M153.066977,303.579895 C149.244531,303.986059 145.371345,304.206065 141.481245,304.206065 L54.6305345,304.206065 L54.6305345,207.166639 L140.466436,207.166639 C139.333233,210.026713 138.419905,212.954481 137.726453,215.933019 L137.540404,216.779195 C136.813125,220.045433 136.373374,223.345518 136.136586,227.390238 C135.984364,230.707246 136.052018,233.990408 136.457942,237.561269 C136.813125,240.79366 137.438924,244.026051 138.453732,247.732301 C139.31632,250.744686 140.449523,253.706301 141.75186,256.600222 L142.4284,258.03872 C143.781478,260.8311 145.354431,263.521939 147.14726,266.162007 L148.060588,267.414347 C150.005638,270.071338 152.102909,272.660636 154.504623,275.063775 L177.676088,298.232064 L175.714125,298.942852 C172.855747,299.839798 169.946629,300.550586 167.020597,301.193679 L164.517402,301.836773 C161.574457,302.446019 158.580771,302.83526 155.671653,303.207577 L153.066977,303.579895 Z M154.504623,84.6065563 C152.102909,87.0096952 150.005638,89.5989927 148.060588,92.2559843 L147.14726,93.5252478 C145.354431,96.1314688 143.781478,98.8392309 142.4284,101.631611 L141.75186,103.070109 C140.449523,105.96403 139.31632,108.925645 138.335338,112.445736 C137.455837,115.627356 136.813125,118.859747 136.424115,122.379838 C136.052018,125.679923 136.001278,128.980008 136.187326,132.990881 C136.356461,136.104807 136.762384,139.20181 137.405097,142.28189 L137.540404,142.891136 C137.540404,142.90806 137.557318,142.924983 137.557318,142.924983 L137.557318,142.992677 C138.284597,146.258915 139.265579,149.440536 140.48335,152.520615 L54.6305345,152.520615 L54.6305345,55.4811899 L141.498158,55.4811899 C145.388258,55.4811899 149.244531,55.6842721 153.083891,56.0904364 L154.20018,56.242748 L155.671653,56.4627537 C158.648425,56.835071 161.608284,57.2412353 165.633692,58.121258 L167.054424,58.4766518 C169.963542,59.1366688 172.855747,59.8474563 176.745847,61.0997963 L177.676088,61.4382666 L154.504623,84.6065563 Z M196.16252,226.391751 C196.416222,225.071717 196.788318,223.78553 197.312636,222.516266 C198.361272,219.926968 199.900398,217.5746 201.896189,215.594549 L210.336014,207.166639 L239.680899,207.166639 L248.120725,215.594549 C251.080583,218.573087 253.05946,222.29626 253.871307,226.408674 C254.125009,227.728708 254.243404,229.048742 254.243404,230.3857 C254.243404,233.110385 253.735999,235.7843 252.721191,238.255133 C251.655642,240.844431 250.116515,243.196799 248.137638,245.159927 L237.363753,255.906358 C230.547621,262.675763 219.469293,262.675763 212.670074,255.906358 L201.896189,245.17685 C199.900398,243.179876 198.344358,240.844431 197.295723,238.255133 C196.280914,235.7843 195.77351,233.110385 195.77351,230.3857 C195.77351,229.048742 195.891904,227.728708 196.16252,226.391751 L196.16252,226.391751 Z M252.704277,137.154065 C251.655642,139.743363 250.116515,142.061884 248.120725,144.075782 L239.680899,152.503692 L210.336014,152.503692 L201.896189,144.075782 C199.900398,142.078807 198.361272,139.760286 197.295723,137.154065 C196.280914,134.649385 195.77351,132.009317 195.77351,129.284631 C195.77351,127.947674 195.891904,126.593793 196.16252,125.273759 C196.94054,121.195192 198.93633,117.455096 201.99767,114.39194 L212.670074,103.763973 C219.486206,96.9776445 230.547621,96.994568 237.363753,103.763973 L248.120725,114.476557 C251.097497,117.455096 253.076374,121.195192 253.871307,125.290682 C254.125009,126.593793 254.243404,127.947674 254.243404,129.284631 C254.243404,131.992393 253.735999,134.649385 252.704277,137.154065 L252.704277,137.154065 Z M313.558972,122.109062 C313.186875,118.859747 312.561076,115.627356 311.563181,111.954954 C310.717507,108.925645 309.584304,105.96403 308.24814,103.070109 L307.5716,101.597764 C306.218522,98.8392309 304.679396,96.1314688 302.886567,93.5252478 L301.939412,92.2559843 C300.011276,89.5820692 297.914004,87.0096952 295.51229,84.6065563 L272.340825,61.4382666 L274.302789,60.727479 C277.161167,59.8474563 280.053371,59.1366688 282.979403,58.4766518 L285.482598,57.8335583 C288.40863,57.2412353 291.368488,56.835071 294.328347,56.4627537 L296.933023,56.0904364 C300.772382,55.6842721 304.645569,55.4811899 308.535669,55.4811899 L395.386379,55.4811899 L395.386379,152.520615 L309.533564,152.520615 C310.751334,149.423612 311.749229,146.208145 312.476509,142.90806 C313.186875,139.624898 313.643539,136.307889 313.880328,132.280093 C314.015636,128.980008 313.947982,125.679923 313.558972,122.109062 L313.558972,122.109062 Z M285.279636,0.835165517 C281.880027,0.835165517 278.514245,1.02132416 275.131549,1.34287092 L272.07021,1.68134118 C269.668496,1.96904091 267.317522,2.32443469 264.543712,2.81521657 L261.668421,3.37369251 C259.080658,3.93216845 256.492896,4.57526195 253.313162,5.47220816 L251.89243,5.87837248 C248.831091,6.80916571 245.820492,7.90919407 242.826806,9.12768703 L239.545591,10.5492621 C237.600541,11.4123613 235.672405,12.3093075 233.744268,13.2908713 L230.243178,15.1524578 C228.636398,16.049404 227.080358,16.9801972 225.016913,18.2663842 C223.291739,17.2002029 221.566564,16.150945 219.790649,15.1524578 C218.623619,14.5093643 217.439675,13.9001178 216.238818,13.2739478 C214.344509,12.3093075 212.416372,11.4123613 209.642562,10.1938684 L207.173194,9.12768703 C204.213335,7.90919407 201.185823,6.80916571 198.10757,5.86144896 L196.061039,5.31989654 C193.507104,4.57526195 190.936255,3.93216845 188.314666,3.37369251 L185.050365,2.74752252 C182.716305,2.32443469 180.348418,1.96904091 177.236338,1.59672362 L174.868451,1.34287092 C171.519582,1.02132416 168.136886,0.835165517 164.737277,0.835165517 L-3.41060513e-13,0.835165517 L-3.41060513e-13,358.835166 L164.720364,358.835166 C168.119973,358.835166 171.485755,358.632083 174.851537,358.344384 L177.963617,357.972066 C180.348418,357.718214 182.699391,357.345896 185.591596,356.838191 L188.331579,356.313562 C190.936255,355.738163 193.507104,355.095069 196.653011,354.215046 L198.124483,353.791959 C201.185823,352.861165 204.196422,351.761137 207.190107,350.559568 L210.471322,349.104145 C212.416372,348.25797 214.344509,347.3441 216.204991,346.396383 C217.422762,345.787137 218.640532,345.144043 219.790649,344.50095 C221.397429,343.620927 222.970383,342.67321 225.016913,341.42087 C226.725175,342.470128 228.467263,343.53631 230.192438,344.484026 C231.376381,345.144043 232.577238,345.787137 233.778095,346.37946 C235.672405,347.361024 237.600541,348.25797 240.577313,349.56108 L242.860633,350.576491 C245.837405,351.761137 248.831091,352.861165 251.960084,353.825806 L253.972788,354.350434 C256.50981,355.095069 259.080658,355.738163 261.651507,356.296639 L264.983462,356.939732 C267.334436,357.36282 269.668496,357.718214 272.763662,358.073607 L275.18229,358.344384 C278.531158,358.632083 281.896941,358.835166 285.29655,358.835166 L450,358.835166 L450,0.835165517 L285.279636,0.835165517 Z" id="Fill-12" fill="#193DD6" mask="url(#mask-2)"></path>
        </g>
    </g>
</svg>